<svg xmlns="http://www.w3.org/2000/svg" viewBox="0 0 165.44 185.15"><defs><style>.cls-1{fill:#050101;}.cls-2{fill:#fff;}.cls-3{fill:#231815;}</style></defs><g id="레이어_2" data-name="레이어 2"><g id="레이어_1-2" data-name="레이어 1"><path class="cls-1" d="M91.62,0V147.64A73.82,73.82,0,0,0,91.62,0Z"/><rect class="cls-1" width="92.86" height="147.63"/><polygon class="cls-2" points="89.65 124.1 21.08 147.63 21.08 0 89.65 23.54 89.65 124.1"/><path class="cls-3" d="M1.21,180.42v-19H8.78a8.17,8.17,0,0,1,5.61,2.44c1.74,1.64,2.63,4,2.63,7.06s-.89,5.45-2.63,7.09a8.2,8.2,0,0,1-5.61,2.43ZM11.62,175a6.78,6.78,0,0,0,0-8.12,3.88,3.88,0,0,0-2.84-1.4H5.64v10.92H8.78A4,4,0,0,0,11.62,175Z"/><path class="cls-3" d="M20.71,178.73a7.41,7.41,0,0,1,0-10.34,7,7,0,0,1,10.15,0,7.41,7.41,0,0,1,0,10.34,7.06,7.06,0,0,1-10.15,0ZM28,176.2a5.93,5.93,0,0,0,0-5.28,2.35,2.35,0,0,0-2.22-1.18,2.34,2.34,0,0,0-2.24,1.18,5.85,5.85,0,0,0,0,5.28,2.31,2.31,0,0,0,2.24,1.16A2.32,2.32,0,0,0,28,176.2Z"/><path class="cls-3" d="M43.11,180.42c0-5.74,0-8.7,0-8.87-.07-.41-.36-.63-.89-.63,0,0-.12,0-.31.05a2.88,2.88,0,0,0-.7.22,3.2,3.2,0,0,0-.84.51,3.15,3.15,0,0,0-.73.91,3.28,3.28,0,0,0-.29,1.45v6.36H35.08V166.8h4.24v.56a6.81,6.81,0,0,1,2.85-.68,5.09,5.09,0,0,1,3.66,1.42A5,5,0,0,1,47.35,172v8.44Z"/><path class="cls-3" d="M49.71,184,51,180.21a10.47,10.47,0,0,0,3.86.86c1.56,0,2.6-.41,3.15-1.23a2,2,0,0,0,.39-.82,5.86,5.86,0,0,1-3.09.82,6,6,0,0,1-4.43-1.92,6.67,6.67,0,0,1,0-9.24,6,6,0,0,1,7.52-1.08v-.75h4.05v12.08a5.74,5.74,0,0,1-.94,2.94,6.82,6.82,0,0,1-2.84,2.53,9.06,9.06,0,0,1-3.55.75A12.17,12.17,0,0,1,49.71,184Zm7.55-8.37a5.1,5.1,0,0,0,.56-2.36,5,5,0,0,0-.56-2.36,2.38,2.38,0,0,0-3.93,0,5,5,0,0,0-.55,2.36,5.1,5.1,0,0,0,.55,2.36,2.38,2.38,0,0,0,3.93,0Z"/><path class="cls-3" d="M73,180.42c0-5.74,0-8.7,0-8.87-.07-.41-.36-.63-.89-.63,0,0-.12,0-.31.05a2.64,2.64,0,0,0-.7.22,3.43,3.43,0,0,0-.85.51,3,3,0,0,0-.72.91,3.28,3.28,0,0,0-.29,1.45v6.36H65V166.8h4.24v.56a6.77,6.77,0,0,1,2.85-.68,5.09,5.09,0,0,1,3.66,1.42A5,5,0,0,1,77.25,172v8.44Z"/><path class="cls-3" d="M80.82,179.19c-1.28-1.18-1.93-3-1.93-5.59,0-4.89,2.17-7.35,6.53-7.35S92,168.71,92,173.6a7.88,7.88,0,0,1-.14,1.47h-9a4.31,4.31,0,0,0,.6,2,2.19,2.19,0,0,0,1.93.8,2.52,2.52,0,0,0,1.42-.48,3,3,0,0,0,1-1.06h3.69c-.94,3.11-3,4.67-6.1,4.67A6.5,6.5,0,0,1,80.82,179.19Zm4.6-9.81a2.32,2.32,0,0,0-2.48,2.34h5A2.35,2.35,0,0,0,85.42,169.38Z"/><path class="cls-3" d="M109.68,180.4v-8.58l-3.23,8.55h-4.39l-3.23-8.55v8.58H94.39V161.16h4.44l5.42,14,5.43-14h4.43V180.4Z"/><path class="cls-3" d="M118.14,178.73a7.41,7.41,0,0,1,0-10.34,7,7,0,0,1,10.15,0,7.41,7.41,0,0,1,0,10.34,7.06,7.06,0,0,1-10.15,0Zm7.3-2.53a5.85,5.85,0,0,0,0-5.28,2.32,2.32,0,0,0-2.21-1.18,2.36,2.36,0,0,0-2.25,1.18,5.93,5.93,0,0,0,0,5.28,2.33,2.33,0,0,0,2.25,1.16A2.29,2.29,0,0,0,125.44,176.2Z"/><path class="cls-3" d="M134,178.73a7.44,7.44,0,0,1,0-10.34,6.87,6.87,0,0,1,5.09-2.17,6.79,6.79,0,0,1,5.06,2.17,7.41,7.41,0,0,1,0,10.34,6.73,6.73,0,0,1-5.06,2.15A6.81,6.81,0,0,1,134,178.73Zm7.31-2.53a5.85,5.85,0,0,0,0-5.28,2.7,2.7,0,0,0-4.46,0,5.85,5.85,0,0,0,0,5.28,2.72,2.72,0,0,0,4.46,0Z"/><path class="cls-3" d="M156.4,180.42c0-5.74,0-8.7,0-8.87-.07-.41-.36-.63-.89-.63,0,0-.12,0-.32.05a2.88,2.88,0,0,0-.7.22,3.37,3.37,0,0,0-.84.51,3,3,0,0,0-.72.91,3.15,3.15,0,0,0-.29,1.45v6.36h-4.25V166.8h4.25v.56a6.76,6.76,0,0,1,2.84-.68,5.11,5.11,0,0,1,3.67,1.42,5,5,0,0,1,1.52,3.88v8.44Z"/></g></g></svg>